{"title":"You Can't Do That!  1080p Remux","uid":10735481,"size":6123161889,"categoryP":"video","categoryS":"hd___movies","magnet":"?xt=urn:btih:99c1740bd56ef15c049576df4c23e8498a6d98e1&amp;dn=You+Can%27t+Do+That%21++1080p+Remux&amp;tr=udp%3A%2F%2Ftracker.openbittorrent.com%3A80&amp;tr=udp%3A%2F%2Fopen.demonii.com%3A1337&amp;tr=udp%3A%2F%2Ftracker.coppersurfer.tk%3A6969&amp;tr=udp%3A%2F%2Fexodus.desync.com%3A6969","seeders":1,"leechers":0,"uploader":null,"files":2,"time":1407689732,"description":"synopsis : Hosted by Phil Collins, this documentary is about the making of the film A Hard Day's Night, and was included on the Criterion Bluray.\n\nIMDB : http://www.imdb.com/title/tt0113743/?ref_=fn_al_tt_8\n\n\nFile size                      : 5.70 GiB\nDuration                       : 1h 2mn\nOverall bit rate mode          : Variable\nOverall bit rate               : 13.1 Mbps\nEncoded date                   : UTC 2014-07-09 02:22:19\nWriting application            : mkvmerge v6.8.0 ('Theme for Great Cities') 32bit built on Mar  2 2014 21:27:07\nWriting library                : libebml v1.3.0 + libmatroska v1.4.1\n\nVideo\nID                             : 1\nFormat                         : AVC\nFormat/Info                    : Advanced Video Codec\nFormat profile                 : &lt;a class=&quot;__cf_email__&quot; href=&quot;/cdn-cgi/l/email-protection&quot; data-cfemail=&quot;3d75545a557d7109130c&quot;&gt;[email&amp;#160;protected]&lt;/a&gt;&lt;script cf-hash='f9e31' type=&quot;text/javascript&quot;&gt;\n/* &lt;![CDATA[ */!function(){try{var t=&quot;currentScript&quot;in document?document.currentScript:function(){for(var t=document.getElementsByTagName(&quot;script&quot;),e=t.length;e--;)if(t[e].getAttribute(&quot;cf-hash&quot;))return t[e]}();if(t&amp;&amp;t.previousSibling){var e,r,n,i,c=t.previousSibling,a=c.getAttribute(&quot;data-cfemail&quot;);if(a){for(e=&quot;&quot;,r=parseInt(a.substr(0,2),16),n=2;a.length-n;n+=2)i=parseInt(a.substr(n,2),16)^r,e+=String.fromCharCode(i);e=document.createTextNode(e),c.parentNode.replaceChild(e,c)}}}catch(u){}}();/* ]]&gt; */&lt;/script&gt;\nFormat settings, CABAC         : Yes\nFormat settings, ReFrames      : 4 frames\nCodec ID                       : V_MPEG4/ISO/AVC\nDuration                       : 1h 2mn\nBit rate mode                  : Variable\nBit rate                       : 12.7 Mbps\nMaximum bit rate               : 37.0 Mbps\nWidth                          : 1 920 pixels\nHeight                         : 1 080 pixels\nDisplay aspect ratio           : 16:9\nFrame rate mode                : Constant\nFrame rate                     : 29.970 fps\nColor space                    : YUV\nChroma subsampling             : 4:2:0\nBit depth                      : 8 bits\nScan type                      : MBAFF\nBits/(Pixel*Frame)             : 0.204\nStream size                    : 5.51 GiB (97%)\nDefault                        : Yes\nForced                         : No\n\nAudio\nID                             : 2\nFormat                         : AC-3\nFormat/Info                    : Audio Coding 3\nMode extension                 : CM (complete main)\nFormat settings, Endianness    : Big\nCodec ID                       : A_AC3\nDuration                       : 1h 2mn\nBit rate mode                  : Constant\nBit rate                       : 192 Kbps\nChannel count                  : 2 channels\nChannel positions              : Front: L R\nSampling rate                  : 48.0 KHz\nBit depth                      : 16 bits\nCompression mode               : Lossy\nStream size                    : 85.4 MiB (1%)\nDefault                        : Yes\nForced                         : No","torrent":{"xt":"urn:btih:99c1740bd56ef15c049576df4c23e8498a6d98e1","amp;dn":"You+Can%27t+Do+That%21++1080p+Remux","amp;tr":["udp%3A%2F%2Ftracker.openbittorrent.com%3A80","udp%3A%2F%2Fopen.demonii.com%3A1337","udp%3A%2F%2Ftracker.coppersurfer.tk%3A6969","udp%3A%2F%2Fexodus.desync.com%3A6969"],"infoHash":"99c1740bd56ef15c049576df4c23e8498a6d98e1","infoHashBuffer":{"type":"Buffer","data":[153,193,116,11,213,110,241,92,4,149,118,223,76,35,232,73,138,109,152,225]},"announce":[],"urlList":[]}}